<svg width="190" height="129" viewBox="0 0 190 129" fill="none" xmlns="http://www.w3.org/2000/svg">
<path d="M164.931 63.4967L164.924 63.4944C160.293 61.8415 155.305 61.3203 150.471 61.9185L150.469 61.9187C149.545 62.0334 148.631 62.1898 147.729 62.386C148.299 61.4836 148.797 60.5327 149.216 59.5411C151.295 54.6687 151.315 49.2693 149.33 44.3726L149.327 44.3654C147.343 39.4978 143.572 35.6336 138.704 33.5802C134.768 31.9103 130.472 31.5641 126.371 32.5594C126.43 28.125 125.555 23.6686 123.776 19.5876C122.266 16.0676 120.093 12.8804 117.472 10.1599L114.375 6.94475L111.518 10.3747C110.952 11.0541 110.343 11.622 109.706 12.0611L109.69 12.0724L109.673 12.0839C108.41 12.9733 106.942 13.5661 105.421 13.7989C103.924 14.0282 102.359 13.8922 100.895 13.4092L100.894 13.4087C99.6134 12.9869 98.4744 12.3391 97.4509 11.447L97.4009 11.3802L97.1125 11.1201C95.4383 9.60997 93.5446 8.42958 91.4752 7.58258C89.049 6.5653 86.4777 6.07901 83.9078 6.07901C81.3033 6.07901 78.7411 6.60009 76.3563 7.57605L76.3384 7.5834L76.3205 7.59092C73.9696 8.57977 71.775 9.99358 69.9107 11.8833C68.0729 13.7245 66.6226 15.8808 65.6337 18.2921C64.6165 20.7193 64.1303 23.2917 64.1303 25.8626C64.1303 28.2466 64.5665 30.5953 65.3883 32.805C65.2385 32.7547 65.0881 32.7063 64.9371 32.6596C62.3021 31.8368 59.5687 31.5951 56.8621 31.893C54.1101 32.1958 51.5127 33.0764 49.1605 34.4287L49.1456 34.4373L49.1308 34.446C46.7602 35.8362 44.7453 37.6642 43.1235 39.8544L43.114 39.8673L43.1045 39.8803C41.5076 42.0735 40.3569 44.5592 39.7539 47.271C39.1516 49.9577 39.1281 52.6913 39.6422 55.371C40.1323 57.9256 41.1243 60.2861 42.4992 62.4031C40.6448 61.9896 38.7521 61.7426 36.8526 61.6729C32.085 61.4981 27.2782 62.4204 22.9128 64.3419C18.525 66.2732 14.6126 69.2445 11.5493 72.8821C8.46873 76.54 6.25198 80.9305 5.10461 85.5467C3.95435 90.1745 3.88085 95.0853 4.87878 99.7524C5.87927 104.431 7.97462 108.871 10.9198 112.616C13.8728 116.371 17.7119 119.436 22.0008 121.506C26.2151 123.541 30.9017 124.613 35.586 124.609L35.9444 124.716H36.5317H153.708H154.295L154.663 124.606C159.471 124.563 164.255 123.392 168.537 121.238C172.913 119.036 176.752 115.793 179.671 111.852C182.601 107.917 184.569 103.274 185.392 98.4563C186.215 93.6436 185.918 88.6265 184.465 83.9157C183.04 79.2875 180.499 74.9558 177.136 71.4169C173.75 67.8541 169.509 65.1397 164.931 63.4967Z" stroke="white" stroke-width="8"/>
<path d="M64.6866 79.0788L64.6866 79.0789L64.694 79.0834L90.6192 94.7757C91.1264 95.0911 91.7001 95.2507 92.276 95.2507C93.0896 95.2507 93.9191 94.9396 94.5347 94.2996L129.794 59.7665L129.794 59.7665L129.802 59.759C131.055 58.5053 131.007 56.4988 129.78 55.2712C128.528 54.0188 126.525 54.0651 125.297 55.2885L91.8039 88.0238L68.0253 73.6491C68.0238 73.6482 68.0224 73.6473 68.0209 73.6464C66.5222 72.7246 64.5596 73.206 63.6416 74.6945C62.7169 76.1937 63.1972 78.1595 64.6866 79.0788Z" fill="white" stroke="white" stroke-width="2"/>
</svg>
